<?xml version="1.0" encoding="UTF-8" standalone="no"?>
<!-- Created with Inkscape (http://www.inkscape.org/) -->

<svg
   version="1.1"
   id="svg868"
   width="493.33334"
   height="493.33334"
   viewBox="0 0 493.33334 493.33334"
   sodipodi:docname="ic_ppp_icon.svg"
   inkscape:version="1.1.2 (1:1.1+202205011109+08b2f3d93c)"
   xmlns:inkscape="http://www.inkscape.org/namespaces/inkscape"
   xmlns:sodipodi="http://sodipodi.sourceforge.net/DTD/sodipodi-0.dtd"
   xmlns="http://www.w3.org/2000/svg"
   xmlns:svg="http://www.w3.org/2000/svg">
  <defs
     id="defs872" />
  <sodipodi:namedview
     id="namedview870"
     pagecolor="#ffffff"
     bordercolor="#666666"
     borderopacity="1.0"
     inkscape:pageshadow="2"
     inkscape:pageopacity="0.0"
     inkscape:pagecheckerboard="0"
     showgrid="false"
     inkscape:zoom="1.4574324"
     inkscape:cx="244.26519"
     inkscape:cy="246.66667"
     inkscape:window-width="1844"
     inkscape:window-height="1136"
     inkscape:window-x="0"
     inkscape:window-y="0"
     inkscape:window-maximized="1"
     inkscape:current-layer="g874" />
  <g
     inkscape:groupmode="layer"
     inkscape:label="Image"
     id="g874">
    <g
       id="g994"
       transform="translate(0.73599018,0.03048493)"
       style="fill:#000000;fill-opacity:1">
      <path
         style="fill:#000000;fill-opacity:1;stroke-width:1.33333"
         d="M 60.291383,424.57631 C 45.334585,421.27897 33.533406,411.8985 25.75008,397.12029 L 22,390.00001 V 246.66667 103.33333 l 4.1952,-8.021665 c 4.310684,-8.24249 14.354762,-18.792433 21.320986,-22.394807 12.330936,-6.376574 8.348557,-6.25019 196.943974,-6.25019 124.24308,0 178.84067,0.439101 183.80755,1.478272 20.21806,4.230028 35.48816,19.410265 39.78419,39.55007 0.86836,4.07089 1.21556,54.49497 0.97985,142.30499 l -0.36508,136.00001 -3.11192,7.70974 c -5.8849,14.5798 -16.74882,24.95732 -31.34553,29.94212 C 427.7907,425.84382 415.40485,426.01406 248,426.21135 99.557591,426.3863 67.22399,426.10469 60.291383,424.57631 Z m 364.996597,-34.9117 c 2.54172,-1.2822 5.84172,-4.43127 7.33333,-6.99794 2.67746,-4.60718 2.71203,-6.34922 2.71203,-136.66667 V 114 l -3.10512,-4.35345 c -6.35804,-8.91413 7.16755,-8.31372 -187.162,-8.30823 -173.667176,0.005 -176.466863,0.046 -180.745072,2.65448 -2.390036,1.45722 -5.537794,4.60498 -6.995017,6.99501 -2.596133,4.258 -2.649554,6.97725 -2.652408,135.01219 -0.0032,145.76433 -0.603176,136.43109 9.190122,142.97343 l 4.530511,3.02658 176.136154,-0.003 c 165.03572,-10e-4 176.4274,-0.149 180.75747,-2.33333 z M 146.39796,365.22478 c -20.45082,-2.1652 -24.91441,-4.86636 -28.74094,-17.39274 -1.92129,-6.28945 -2.24502,-18.70301 -2.64817,-101.54749 -0.29759,-61.1522 0.0256,-97.06421 0.91779,-102 2.81752,-15.58625 12.92731,-19.10433 55.4067,-19.28084 37.15974,-0.1544 53.80578,2.54471 59.82728,9.70085 5.94788,7.06866 6.33809,14.73082 5.90658,115.97966 -0.39346,92.32588 -0.45,94.08821 -3.20696,99.98245 -3.32032,7.09867 -6.20666,9.81397 -12.5269,11.78452 -12.00279,3.74229 -51.85391,5.21731 -74.93538,2.77359 z m 34.0889,-10.65488 c 4.0526,-3.18778 4.56074,-7.88656 1.17981,-10.90958 -8.24836,-7.37513 -18.81188,3.19447 -11,11.00635 3.37797,3.37797 5.42845,3.35777 9.82019,-0.0968 z M 228.66667,236 V 151.33334 H 176 123.33334 l -0.34566,83.33333 c -0.19011,45.83333 -0.0563,84.09031 0.29744,85.01551 0.50571,1.32281 11.83087,1.60765 53.01232,1.33333 l 52.36923,-0.34884 z m -59.21032,29.76226 c 2.86169,-13.80258 5.20471,-25.54559 5.20669,-26.09559 0.003,-0.55 -5.69637,-1 -12.66304,-1 -9.29386,0 -12.64198,-0.44379 -12.574,-1.66667 0.0509,-0.91666 6.53815,-13.66666 14.41598,-28.33333 L 178.16528,182 l 8.2507,-0.39696 c 4.53788,-0.21832 8.25069,0.13742 8.25069,0.79054 0,0.6531 -4.80375,9.83174 -10.675,20.39694 C 178.12042,213.35574 173.47682,222.9 173.67255,224 c 0.27941,1.57028 3.27257,2.14324 13.93069,2.66667 l 13.57483,0.66667 -17.58904,30.89042 c -9.67396,16.98974 -17.98204,31.28275 -18.46239,31.76226 -0.48034,0.4795 1.46802,-10.42119 4.32971,-24.22376 z m 120.75031,79.79942 c -3.03607,-3.35481 -2.80044,-10.30122 0.46001,-13.56168 2.57549,-2.57549 4.44444,-2.66666 54.66667,-2.66666 50.22223,0 52.09117,0.0912 54.66667,2.66666 3.40473,3.40474 3.52729,10.80784 0.22834,13.79335 -2.18229,1.97495 -7.9707,2.20665 -55.12668,2.20665 -49.35031,0 -52.82817,-0.15448 -54.89501,-2.43832 z m -0.66875,-61.22834 c -4.50645,-3.81322 -4.90921,-8.69886 -1.08372,-13.1457 l 3.31576,-3.8543 h 52.64216 c 49.89606,0 52.78856,0.13253 55.44838,2.53998 3.66189,3.31451 3.73318,10.53302 0.13952,14.12668 -2.5764,2.5764 -4.44444,2.66667 -55.18563,2.66667 -48.07867,0 -52.7521,-0.19728 -55.27647,-2.33333 z m -1.51649,-63.9423 c -3.32062,-4.22145 -2.7361,-9.12597 1.51649,-12.72437 2.52437,-2.13605 7.1978,-2.33333 55.27647,-2.33333 50.74119,0 52.60923,0.0903 55.18563,2.66666 3.40473,3.40474 3.52729,10.80784 0.22834,13.79335 C 398.04481,223.76944 392.20369,224 344.32512,224 h -53.4649 z m 3.77953,-59.20594 c -5.14145,-1.91808 -7.25161,-7.80144 -4.62197,-12.8866 1.13065,-2.18644 3.027,-4.34806 4.21409,-4.80359 1.18711,-0.45553 25.12837,-0.82824 53.20284,-0.82824 49.62139,0 51.14242,0.0771 54.55762,2.76344 4.46037,3.50853 4.80413,10.321 0.70794,14.02991 -2.64456,2.39453 -5.71785,2.55438 -53.66667,2.79144 -30.89537,0.15274 -52.24813,-0.26587 -54.39385,-1.06636 z"
         id="path996" />
    </g>
  </g>
</svg>
